<?xml version="1.0" encoding="UTF-8" standalone="no"?>
<!-- Created with Inkscape (http://www.inkscape.org/) -->

<svg
   xmlns:dc="http://purl.org/dc/elements/1.1/"
   xmlns:cc="http://creativecommons.org/ns#"
   xmlns:rdf="http://www.w3.org/1999/02/22-rdf-syntax-ns#"
   xmlns:svg="http://www.w3.org/2000/svg"
   xmlns="http://www.w3.org/2000/svg"
   xmlns:sodipodi="http://sodipodi.sourceforge.net/DTD/sodipodi-0.dtd"
   xmlns:inkscape="http://www.inkscape.org/namespaces/inkscape"
   width="152.60007"
   height="152.14001"
   viewBox="0 0 40.375434 40.253712"
   version="1.1"
   id="svg8"
   inkscape:version="0.92.4 (5da689c313, 2019-01-14)"
   sodipodi:docname="logo.svg">
  <defs
     id="defs2" />
  <sodipodi:namedview
     id="base"
     pagecolor="#ffffff"
     bordercolor="#666666"
     borderopacity="1.0"
     inkscape:pageopacity="0.0"
     inkscape:pageshadow="2"
     inkscape:zoom="1.979899"
     inkscape:cx="112.5867"
     inkscape:cy="58.626453"
     inkscape:document-units="mm"
     inkscape:current-layer="layer1"
     showgrid="false"
     showguides="false"
     inkscape:guide-bbox="true"
     inkscape:window-width="1920"
     inkscape:window-height="1017"
     inkscape:window-x="1912"
     inkscape:window-y="-8"
     inkscape:window-maximized="1"
     fit-margin-top="30"
     fit-margin-left="0.3"
     fit-margin-right="0.3"
     fit-margin-bottom="30"
     units="px">
    <inkscape:grid
       type="xygrid"
       id="grid817"
       originx="-35.374777"
       originy="-106.88379" />
    <sodipodi:guide
       position="-3.6247827,9.5328788"
       orientation="0,1"
       id="guide821"
       inkscape:locked="false" />
    <sodipodi:guide
       position="-3.6247827,25.407879"
       orientation="1,0"
       id="guide823"
       inkscape:locked="false" />
    <sodipodi:guide
       position="44.000216,25.407879"
       orientation="1,0"
       id="guide825"
       inkscape:locked="false" />
    <sodipodi:guide
       position="20.187717,25.407879"
       orientation="0,1"
       id="guide837"
       inkscape:locked="false" />
    <sodipodi:guide
       position="20.187717,14.824549"
       orientation="0,1"
       id="guide839"
       inkscape:locked="false" />
    <sodipodi:guide
       position="14.89605,20.116209"
       orientation="1,0"
       id="guide841"
       inkscape:locked="false" />
    <sodipodi:guide
       position="25.479385,20.116209"
       orientation="1,0"
       id="guide843"
       inkscape:locked="false" />
  </sodipodi:namedview>
  <metadata
     id="metadata5">
    <rdf:RDF>
      <cc:Work
         rdf:about="">
        <dc:format>image/svg+xml</dc:format>
        <dc:type
           rdf:resource="http://purl.org/dc/dcmitype/StillImage" />
        <dc:title></dc:title>
      </cc:Work>
    </rdf:RDF>
  </metadata>
  <g
     inkscape:label="Livello 1"
     inkscape:groupmode="layer"
     id="layer1"
     transform="translate(-35.374783,-149.8625)">
    <path
       style="opacity:1;fill:#68bd4d;fill-opacity:1;stroke:#000000;stroke-width:0.5291667;stroke-linecap:round;stroke-linejoin:miter;stroke-miterlimit:4;stroke-dasharray:none;stroke-opacity:1;paint-order:fill markers stroke"
       d="m 35.718749,159.41666 c 0,0 5.85717,1.26303 8.819442,1.32292 8.116681,0.16412 16.14128,-3.00856 24.253483,-2.64583 2.233721,0.0999 6.614576,1.32291 6.614576,1.32291 5e-6,0 8e-6,0 8e-6,1e-5 v 21.16665 c 0,0 -3e-6,1e-5 -8e-6,1e-5 0,0 -3.641244,-1.19857 -5.512145,-1.32291 -8.470883,-0.563 -16.873549,2.8373 -25.355914,2.64583 -2.962168,-0.0669 -8.819442,-1.32292 -8.819442,-1.32292 -4e-6,0 -8e-6,-1e-5 -8e-6,-1e-5 v -21.16665 c 0,-1e-5 4e-6,-1e-5 8e-6,-1e-5 z"
       id="rect827"
       inkscape:connector-curvature="0"
       sodipodi:nodetypes="ssssscsssscss"
       inkscape:label="Banconota" />
    <ellipse
       style="opacity:1;fill:#ffffff;fill-opacity:1;stroke:none;stroke-width:6.56733656;stroke-linecap:round;stroke-linejoin:miter;stroke-miterlimit:4;stroke-dasharray:none;stroke-opacity:1;paint-order:fill markers stroke"
       id="path849"
       cx="55.515255"
       cy="169.95274"
       rx="6.5673361"
       ry="6.5673332"
       inkscape:label="Cerchio" />
    <path
       style="display:inline;stroke-width:0.99999994"
       d="m 230.68945,628.9043 a 24.821428,24.821417 0 0 1 1.66016,3.08593 h 12.76172 l -11.19336,16.1875 a 24.821428,24.821417 0 0 1 -4.35938,9.16407 h 20.66993 v -3.06641 h -16.26954 l 15.64454,-22.61719 v -2.7539 z"
       transform="scale(0.26458333)"
       id="path867"
       inkscape:connector-curvature="0"
       inkscape:label="Z nera" />
    <path
       style="display:inline;fill:#4ea744;fill-opacity:1;stroke-width:0.99999994"
       d="m 229.7793,628.9043 v 3.08593 h 2.57031 a 24.821428,24.821417 0 0 0 -1.66016,-3.08593 z m 4.13867,19.27343 -4.39258,6.35157 v 2.8125 h 0.0332 a 24.821428,24.821417 0 0 0 4.35938,-9.16407 z"
       transform="scale(0.26458333)"
       id="path891"
       inkscape:connector-curvature="0"
       inkscape:label="Z verde" />
    <path
       d="m 53.39578,171.54956 0.144694,0.99219 0.211873,-0.894 1.488281,-5.25033 h 0.837158 l 1.452108,5.25033 0.206706,0.9095 0.160197,-1.01286 1.167887,-5.14697 h 0.997355 l -1.824178,7.52409 h -0.904337 l -1.550293,-5.48287 -0.118856,-0.57361 -0.118856,0.57361 -1.607137,5.48287 h -0.904337 l -1.819011,-7.52409 h 0.992188 z"
       style="display:inline;fill:#4ea744;fill-opacity:1;stroke-width:0.26458332"
       id="path865"
       inkscape:connector-curvature="0"
       inkscape:label="W verde" />
    <path
       style="display:inline;stroke-width:0.99999994"
       d="m 170.44336,628.9043 v 28.4375 h 3.75 v -11.13282 h 6.69922 c 1.64942,0 3.09989,-0.19746 4.35547,-0.58789 A 24.821428,24.821417 0 0 1 185,642.3418 a 24.821428,24.821417 0 0 1 0.01,-0.21094 c -1.02535,0.67069 -2.38209,1.01172 -4.07813,1.01172 h -6.73828 v -11.15235 h 6.95312 c 1.86198,0.0391 3.32683,0.5664 4.39454,1.58204 0.2939,0.27956 0.54285,0.5871 0.75586,0.91796 a 24.821428,24.821417 0 0 1 1.5039,-3.55468 c -1.71765,-1.3483 -4.00212,-2.03125 -6.86914,-2.03125 z"
       transform="scale(0.26458333)"
       id="path863"
       inkscape:connector-curvature="0" />
    <path
       style="fill:#4ea744;fill-opacity:1;stroke-width:0.99999994"
       d="m 187.80078,630.93555 a 24.821428,24.821417 0 0 0 -1.5039,3.55468 c 0.5608,0.87113 0.8457,1.91776 0.8457,3.14454 0,1.78383 -0.53386,3.15103 -1.60156,4.10156 -0.16463,0.14455 -0.34434,0.27227 -0.53125,0.39453 a 24.821428,24.821417 0 0 0 -0.01,0.21094 24.821428,24.821417 0 0 0 0.24805,3.27929 c 1.19262,-0.37084 2.2096,-0.91557 3.04687,-1.63867 1.73177,-1.4974 2.59766,-3.6263 2.59766,-6.38672 0,-2.61717 -0.88542,-4.72003 -2.65625,-6.30859 -0.13837,-0.12504 -0.28879,-0.23636 -0.43555,-0.35156 z"
       transform="scale(0.26458333)"
       id="path888"
       inkscape:connector-curvature="0"
       inkscape:label="P verde" />
  </g>
</svg>
